<svg xmlns="http://www.w3.org/2000/svg" viewBox="0 0 900 600" role="img" aria-label="Verified apartment listing visual">
  <defs>
    <linearGradient id="sky" x1="0" x2="0" y1="0" y2="1">
      <stop offset="0" stop-color="#d9ecf7"/>
      <stop offset=".58" stop-color="#9fb6c4"/>
      <stop offset="1" stop-color="#293845"/>
    </linearGradient>
  </defs>
  <rect width="900" height="600" fill="url(#sky)"/>
  <rect x="160" y="80" width="245" height="470" fill="#1f2937"/>
  <rect x="405" y="150" width="265" height="400" fill="#334155"/>
  <rect x="690" y="245" width="90" height="305" fill="#111827"/>
  <g fill="#fffaf1" opacity=".82">
    <rect x="195" y="125" width="45" height="42"/><rect x="270" y="125" width="45" height="42"/>
    <rect x="195" y="205" width="45" height="42"/><rect x="270" y="205" width="45" height="42"/>
    <rect x="195" y="285" width="45" height="42"/><rect x="270" y="285" width="45" height="42"/>
    <rect x="195" y="365" width="45" height="42"/><rect x="270" y="365" width="45" height="42"/>
    <rect x="455" y="195" width="45" height="42"/><rect x="545" y="195" width="45" height="42"/>
    <rect x="455" y="285" width="45" height="42"/><rect x="545" y="285" width="45" height="42"/>
    <rect x="455" y="375" width="45" height="42"/><rect x="545" y="375" width="45" height="42"/>
  </g>
  <path d="M0 548 H900 V600 H0 Z" fill="#172033"/>
  <circle cx="118" cy="112" r="46" fill="#8b1538"/>
  <path d="M99 112 l13 13 l28 -31" fill="none" stroke="#fff" stroke-width="8" stroke-linecap="round" stroke-linejoin="round"/>
</svg>
