<svg xmlns="http://www.w3.org/2000/svg" viewBox="0 0 900 600" role="img" aria-label="Verified plot listing visual">
  <defs>
    <linearGradient id="sky" x1="0" x2="0" y1="0" y2="1">
      <stop offset="0" stop-color="#9ec5d9"/>
      <stop offset=".6" stop-color="#efe4cb"/>
      <stop offset="1" stop-color="#c9a962"/>
    </linearGradient>
    <linearGradient id="land" x1="0" x2="1">
      <stop offset="0" stop-color="#355f49"/>
      <stop offset="1" stop-color="#8fa57d"/>
    </linearGradient>
  </defs>
  <rect width="900" height="600" fill="url(#sky)"/>
  <path d="M0 410 C140 360 235 440 370 385 C510 327 638 382 900 315 L900 600 L0 600 Z" fill="url(#land)"/>
  <path d="M0 494 C230 446 420 470 900 410 L900 600 L0 600 Z" fill="#283f32" opacity=".82"/>
  <g fill="none" stroke="#fffaf1" stroke-width="7" opacity=".85">
    <path d="M128 522 L760 445"/>
    <path d="M205 493 L230 565"/>
    <path d="M352 475 L382 557"/>
    <path d="M509 457 L535 548"/>
    <path d="M675 436 L705 520"/>
  </g>
  <g transform="translate(88 330)">
    <rect width="210" height="96" rx="10" fill="#fffaf1" opacity=".94"/>
    <text x="22" y="38" fill="#8b1538" font-family="Arial, sans-serif" font-size="18" font-weight="700">PLOTKARE VERIFIED</text>
    <text x="22" y="68" fill="#1a1a1a" font-family="Arial, sans-serif" font-size="20" font-weight="700">Open plot asset</text>
  </g>
</svg>
